<?xml version="1.0" encoding="UTF-8"?>
<svg width="1024px" height="1024px" viewBox="0 0 1024 1024" version="1.1" xmlns="http://www.w3.org/2000/svg" xmlns:xlink="http://www.w3.org/1999/xlink">
    <!-- Generator: Sketch 63.1 (92452) - https://sketch.com -->
    <title>app_logo</title>
    <desc>Created with Sketch.</desc>
    <g id="app_logo" stroke="none" stroke-width="1" fill="none" fill-rule="evenodd">
        <g id="B-E-C-O-M-E-T-S" transform="translate(123.687500, 823.406250)" fill-rule="nonzero">
            <path d="M15.59375,46.59375 C21.4895833,46.5520833 25.2083333,46.4479167 26.75,46.28125 C29.2083333,46.0104167 31.2760417,45.2864583 32.953125,44.109375 C34.6302083,42.9322917 35.953125,41.359375 36.921875,39.390625 C37.890625,37.421875 38.375,35.3958333 38.375,33.3125 C38.375,30.6666667 37.625,28.3645833 36.125,26.40625 C34.625,24.4479167 32.4791667,23.0625 29.6875,22.25 C31.6666667,21.3541667 33.234375,20.0104167 34.390625,18.21875 C35.546875,16.4270833 36.125,14.4583333 36.125,12.3125 C36.125,10.3333333 35.65625,8.546875 34.71875,6.953125 C33.78125,5.359375 32.609375,4.08333333 31.203125,3.125 C29.796875,2.16666667 28.203125,1.53645833 26.421875,1.234375 C24.640625,0.932291667 21.9375,0.78125 18.3125,0.78125 L18.3125,0.78125 L0,0.78125 L0,46.59375 L15.59375,46.59375 Z M15.6934391,18.9998007 L9.25,19 L9.25,8.40625 L14.9785055,8.40641259 C19.084905,8.40966441 21.5816532,8.46169355 22.46875,8.5625 C24.0104167,8.75 25.171875,9.28645833 25.953125,10.171875 C26.734375,11.0572917 27.125,12.2083333 27.125,13.625 C27.125,15.1041667 26.671875,16.296875 25.765625,17.203125 C24.859375,18.109375 23.6145833,18.65625 22.03125,18.84375 C21.15625,18.9479167 18.9166667,19 15.3125,19 L15.6934391,18.9998007 Z M17.8125,38.875 L9.25,38.875 L9.25,26.625 L16.71875,26.625 C20.9270833,26.625 23.6614583,26.84375 24.921875,27.28125 C26.1822917,27.71875 27.1458333,28.4166667 27.8125,29.375 C28.4791667,30.3333333 28.8125,31.5 28.8125,32.875 C28.8125,34.5 28.3802083,35.796875 27.515625,36.765625 C26.6510417,37.734375 25.53125,38.34375 24.15625,38.59375 C23.2604167,38.78125 21.1458333,38.875 17.8125,38.875 L17.8125,38.875 Z M134.375,46.59375 L134.375,38.875 L108.78125,38.875 L108.78125,26.40625 L131.78125,26.40625 L131.78125,18.6875 L108.78125,18.6875 L108.78125,8.53125 L133.5,8.53125 L133.5,0.78125 L99.53125,0.78125 L99.53125,46.59375 L134.375,46.59375 Z M214.8125,47.375 C219.729167,47.375 223.786458,46.1614583 226.984375,43.734375 C230.182292,41.3072917 232.46875,37.59375 233.84375,32.59375 L233.84375,32.59375 L224.875,29.75 C224.104167,33.1041667 222.833333,35.5625 221.0625,37.125 C219.291667,38.6875 217.177083,39.46875 214.71875,39.46875 C211.385417,39.46875 208.677083,38.2395833 206.59375,35.78125 C204.510417,33.3229167 203.46875,29.1979167 203.46875,23.40625 C203.46875,17.9479167 204.526042,14 206.640625,11.5625 C208.755208,9.125 211.510417,7.90625 214.90625,7.90625 C217.364583,7.90625 219.453125,8.59375 221.171875,9.96875 C222.890625,11.34375 224.020833,13.21875 224.5625,15.59375 L224.5625,15.59375 L233.71875,13.40625 C232.677083,9.73958333 231.114583,6.92708333 229.03125,4.96875 C225.53125,1.65625 220.979167,0 215.375,0 C208.958333,0 203.78125,2.109375 199.84375,6.328125 C195.90625,10.546875 193.9375,16.46875 193.9375,24.09375 C193.9375,31.3020833 195.895833,36.984375 199.8125,41.140625 C203.729167,45.296875 208.729167,47.375 214.8125,47.375 Z M315.53125,47.375 C322.260417,47.375 327.635417,45.2864583 331.65625,41.109375 C335.677083,36.9322917 337.6875,31.1458333 337.6875,23.75 C337.6875,16.2916667 335.661458,10.46875 331.609375,6.28125 C327.557292,2.09375 322.15625,0 315.40625,0 C311.677083,0 308.385417,0.604166667 305.53125,1.8125 C303.385417,2.70833333 301.411458,4.08333333 299.609375,5.9375 C297.807292,7.79166667 296.385417,9.88541667 295.34375,12.21875 C293.947917,15.3854167 293.25,19.3020833 293.25,23.96875 C293.25,31.2604167 295.260417,36.984375 299.28125,41.140625 C303.302083,45.296875 308.71875,47.375 315.53125,47.375 Z M315.5,39.46875 C311.8125,39.46875 308.770833,38.1302083 306.375,35.453125 C303.979167,32.7760417 302.78125,28.84375 302.78125,23.65625 C302.78125,18.3854167 303.947917,14.4427083 306.28125,11.828125 C308.614583,9.21354167 311.6875,7.90625 315.5,7.90625 C319.3125,7.90625 322.369792,9.19791667 324.671875,11.78125 C326.973958,14.3645833 328.125,18.28125 328.125,23.53125 C328.125,28.84375 326.942708,32.828125 324.578125,35.484375 C322.213542,38.140625 319.1875,39.46875 315.5,39.46875 Z M406.71875,46.59375 L406.71875,10.53125 L415.78125,46.59375 L424.6875,46.59375 L433.78125,10.53125 L433.78125,46.59375 L442.375,46.59375 L442.375,0.78125 L428.5,0.78125 L420.28125,32.03125 L411.96875,0.78125 L398.125,0.78125 L398.125,46.59375 L406.71875,46.59375 Z M539.75,46.59375 L539.75,38.875 L514.15625,38.875 L514.15625,26.40625 L537.15625,26.40625 L537.15625,18.6875 L514.15625,18.6875 L514.15625,8.53125 L538.875,8.53125 L538.875,0.78125 L504.90625,0.78125 L504.90625,46.59375 L539.75,46.59375 Z" id="BECOME" fill="#000000"></path>
            <path d="M673.84375,46.59375 L673.84375,8.53125 L687.40625,8.53125 L687.40625,0.78125 L651,0.78125 L651,8.53125 L664.59375,8.53125 L664.59375,46.59375 L673.84375,46.59375 Z M763.28125,47.40625 C767.260417,47.40625 770.583333,46.8489583 773.25,45.734375 C775.916667,44.6197917 777.979167,42.9166667 779.4375,40.625 C780.895833,38.3333333 781.625,35.875 781.625,33.25 C781.625,30.3541667 781.015625,27.921875 779.796875,25.953125 C778.578125,23.984375 776.890625,22.4322917 774.734375,21.296875 C772.578125,20.1614583 769.25,19.0625 764.75,18 C760.25,16.9375 757.416667,15.9166667 756.25,14.9375 C755.333333,14.1666667 754.875,13.2395833 754.875,12.15625 C754.875,10.96875 755.364583,10.0208333 756.34375,9.3125 C757.864583,8.20833333 759.96875,7.65625 762.65625,7.65625 C765.260417,7.65625 767.213542,8.171875 768.515625,9.203125 C769.817708,10.234375 770.666667,11.9270833 771.0625,14.28125 L771.0625,14.28125 L780.3125,13.875 C780.166667,9.66666667 778.640625,6.30208333 775.734375,3.78125 C772.828125,1.26041667 768.5,0 762.75,0 C759.229167,0 756.223958,0.53125 753.734375,1.59375 C751.244792,2.65625 749.338542,4.203125 748.015625,6.234375 C746.692708,8.265625 746.03125,10.4479167 746.03125,12.78125 C746.03125,16.40625 747.4375,19.4791667 750.25,22 C752.25,23.7916667 755.729167,25.3020833 760.6875,26.53125 C764.541667,27.4895833 767.010417,28.15625 768.09375,28.53125 C769.677083,29.09375 770.786458,29.7552083 771.421875,30.515625 C772.057292,31.2760417 772.375,32.1979167 772.375,33.28125 C772.375,34.96875 771.619792,36.4427083 770.109375,37.703125 C768.598958,38.9635417 766.354167,39.59375 763.375,39.59375 C760.5625,39.59375 758.328125,38.8854167 756.671875,37.46875 C755.015625,36.0520833 753.916667,33.8333333 753.375,30.8125 L753.375,30.8125 L744.375,31.6875 C744.979167,36.8125 746.833333,40.7135417 749.9375,43.390625 C753.041667,46.0677083 757.489583,47.40625 763.28125,47.40625 Z" id="TS" fill="#2196F3"></path>
        </g>
        <path d="M170.526855,621.723145 C188.894368,621.723145 203.687663,617.875895 214.906738,610.181396 C226.125814,602.486898 233.869954,592.285482 238.13916,579.577148 C241.316243,569.847331 242.904785,555.947591 242.904785,537.87793 L242.904785,537.87793 L242.904785,399.674805 L198.97168,399.674805 L198.97168,540.70752 C198.97168,558.380046 196.936361,570.021077 192.865723,575.630615 C188.795085,581.240153 181.845215,584.044922 172.016113,584.044922 C162.286296,584.044922 155.038574,580.12321 150.272949,572.279785 C147.095866,567.117025 145.259115,558.280762 144.762695,545.770996 L144.762695,545.770996 L103.212402,550.536621 C103.311686,573.868327 109.169434,591.565674 120.785645,603.628662 C132.401855,615.69165 148.982259,621.723145 170.526855,621.723145 Z M368.74707,621.87207 C387.710286,621.87207 403.546061,619.216227 416.254395,613.904541 C428.962728,608.592855 438.791829,600.4764 445.741699,589.555176 C452.691569,578.633952 456.166504,566.918457 456.166504,554.408691 C456.166504,540.608236 453.262451,529.016846 447.454346,519.634521 C441.64624,510.252197 433.604248,502.85555 423.328369,497.44458 C413.05249,492.03361 397.191895,486.796387 375.746582,481.73291 C354.30127,476.669434 340.798665,471.804525 335.23877,467.138184 C330.87028,463.464681 328.686035,459.046549 328.686035,453.883789 C328.686035,448.224609 331.019206,443.707194 335.685547,440.331543 C342.933268,435.069499 352.960938,432.438477 365.768555,432.438477 C378.179036,432.438477 387.486898,434.895752 393.692139,439.810303 C399.89738,444.724854 403.943197,452.791667 405.82959,464.010742 L405.82959,464.010742 L449.911621,462.074707 C449.216634,442.019368 441.944092,425.985026 428.093994,413.97168 C414.243896,401.958333 393.617676,395.95166 366.215332,395.95166 C349.436361,395.95166 335.114665,398.483398 323.250244,403.546875 C311.385824,408.610352 302.301351,415.982178 295.996826,425.662354 C289.692301,435.342529 286.540039,445.742513 286.540039,456.862305 C286.540039,474.137695 293.241699,488.782064 306.64502,500.79541 C316.17627,509.333822 332.756673,516.531901 356.38623,522.389648 C374.753743,526.956706 386.51888,530.133789 391.681641,531.920898 C399.227214,534.601562 404.514079,537.753825 407.542236,541.377686 C410.570394,545.001546 412.084473,549.394857 412.084473,554.557617 C412.084473,562.599609 408.485433,569.623942 401.287354,575.630615 C394.089274,581.637288 383.391439,584.640625 369.193848,584.640625 C355.790527,584.640625 345.142334,581.264974 337.249268,574.513672 C329.356201,567.76237 324.118978,557.188639 321.537598,542.79248 L321.537598,542.79248 L278.646973,546.962402 C281.526204,571.38623 290.362467,589.977132 305.155762,602.735107 C319.949056,615.493083 341.146159,621.87207 368.74707,621.87207 Z M590.497559,621.723145 C622.566243,621.723145 648.181478,611.769938 667.343262,591.863525 C686.505046,571.957113 696.085938,544.381022 696.085938,509.135254 C696.085938,473.591634 686.430583,445.841797 667.119873,425.885742 C647.809163,405.929688 622.069824,395.95166 589.901855,395.95166 C572.130046,395.95166 556.443197,398.830892 542.841309,404.589355 C532.615072,408.858561 523.207926,415.411296 514.619873,424.247559 C506.03182,433.083822 499.255697,443.061849 494.291504,454.181641 C487.639486,469.272786 484.313477,487.938151 484.313477,510.177734 C484.313477,544.927083 493.894368,572.205322 513.056152,592.012451 C532.217936,611.81958 558.031738,621.723145 590.497559,621.723145 Z M590.348633,584.044922 C572.775391,584.044922 558.279948,577.665934 546.862305,564.907959 C535.444661,552.149984 529.73584,533.410156 529.73584,508.688477 C529.73584,483.569661 535.295736,464.780192 546.415527,452.320068 C557.535319,439.859945 572.179688,433.629883 590.348633,433.629883 C608.517578,433.629883 623.087484,439.785482 634.05835,452.09668 C645.029215,464.407878 650.514648,483.073242 650.514648,508.092773 C650.514648,533.410156 644.88029,552.398193 633.611572,565.056885 C622.342855,577.715576 607.921875,584.044922 590.348633,584.044922 Z M771.88916,618 L771.88916,475.626953 L859.904297,618 L904.135254,618 L904.135254,399.674805 L863.180664,399.674805 L863.180664,545.473145 L773.825195,399.674805 L730.93457,399.674805 L730.93457,618 L771.88916,618 Z" id="JSON" fill="#000000" fill-rule="nonzero"></path>
    </g>
</svg>